<svg width="24" height="24" viewBox="0 0 24 24" fill="none" xmlns="http://www.w3.org/2000/svg">
<g id="icon">
<path id="Vector" d="M24 12.2743C24 11.4586 23.9325 10.6384 23.7886 9.83594H12.2422V14.4569H18.8543C18.5799 15.9473 17.6983 17.2657 16.4074 18.1034V21.1018H20.3521C22.6686 19.0118 24 15.9252 24 12.2743Z" fill="#4285F4"/>
<path id="Vector_2" d="M12.2422 24.0013C15.5437 24.0013 18.3279 22.9387 20.3565 21.1044L16.4118 18.106C15.3143 18.838 13.8974 19.2525 12.2467 19.2525C9.05311 19.2525 6.34533 17.1404 5.37377 14.3008H1.3031V17.3917C3.38117 21.4439 7.61376 24.0013 12.2422 24.0013Z" fill="#34A853"/>
<path id="Vector_3" d="M5.36833 14.2987C4.85556 12.8084 4.85556 11.1946 5.36833 9.70422V6.61328H1.30216C-0.434055 10.0041 -0.434055 13.9989 1.30216 17.3897L5.36833 14.2987Z" fill="#FBBC04"/>
<path id="Vector_4" d="M12.2421 4.74966C13.9873 4.7232 15.6741 5.36697 16.938 6.54867L20.4329 3.12262C18.2199 1.0855 15.2828 -0.034466 12.2421 0.000808666C7.61374 0.000808666 3.38116 2.55822 1.3031 6.61481L5.36926 9.70575C6.33632 6.86173 9.04859 4.74966 12.2421 4.74966Z" fill="#EA4335"/>
</g>
</svg>
