<svg width="19" height="20" viewBox="0 0 19 20" fill="none" xmlns="http://www.w3.org/2000/svg">
<g id="sort-amount-desc">
<path id="Combined Shape" fill-rule="evenodd" clip-rule="evenodd" d="M3.47601 2.9668H16.2004C16.5186 2.9668 16.7788 3.22707 16.7788 3.54518C16.7788 3.86329 16.5186 4.12356 16.2004 4.12356H3.47601C3.1579 4.12356 2.89763 3.86329 2.89763 3.54518C2.89763 3.22707 3.1579 2.9668 3.47601 2.9668ZM3.47601 7.16008H13.3837H13.3895C13.7076 7.16008 13.9679 7.42035 13.9679 7.73846C13.9679 8.05657 13.7076 8.31684 13.3895 8.31684H3.47601C3.1579 8.31684 2.89763 8.05657 2.89763 7.73846C2.89763 7.42035 3.1579 7.16008 3.47601 7.16008ZM10.995 11.4633H3.47601C3.1579 11.4633 2.89763 11.7236 2.89763 12.0417C2.89763 12.3598 3.1579 12.6201 3.47601 12.6201H10.995C11.3131 12.6201 11.5734 12.3598 11.5734 12.0417C11.5734 11.7236 11.3131 11.4633 10.995 11.4633ZM3.46999 15.7665H7.82521C8.14332 15.7665 8.4036 16.0268 8.4036 16.3449C8.4036 16.663 8.14332 16.9233 7.82521 16.9233H3.46999C3.15187 16.9233 2.8916 16.663 2.8916 16.3449C2.8916 16.0268 3.15187 15.7665 3.46999 15.7665Z" fill="#0070D2"/>
</g>
</svg>
