<svg width="24" height="24" viewBox="0 0 24 24" fill="none" xmlns="http://www.w3.org/2000/svg">
<rect width="24" height="24" rx="2" fill="#E82127"/>
<path d="M12.0011 20.2127L14.5193 7.2352C16.9195 7.2352 17.6766 7.47638 17.7859 8.46082C17.7859 8.46082 19.3961 7.91068 20.2082 6.79336C17.0391 5.44773 13.8549 5.38704 13.8549 5.38704L11.9969 7.46077L12.0011 7.46051L10.1431 5.38672C10.1431 5.38672 6.95878 5.44747 3.79013 6.7931C4.60153 7.91042 6.21233 8.46056 6.21233 8.46056C6.32229 7.47606 7.07846 7.23487 9.46262 7.23331L12.0011 20.2127Z" fill="white"/>
<path d="M12 4.78814C14.5618 4.77018 17.494 5.15128 20.4957 6.3501C20.8969 5.68841 21 5.39597 21 5.39597C17.7187 4.20638 14.6458 3.79927 11.9996 3.78906C9.35363 3.79927 6.28088 4.20645 3 5.39597C3 5.39597 3.14637 5.75618 3.50397 6.3501C6.50511 5.15128 9.43782 4.77018 11.9996 4.78814H12Z" fill="white"/>
</svg>
