<svg width="24" height="24" viewBox="0 0 24 24" fill="none" xmlns="http://www.w3.org/2000/svg">
<g id="history">
<path id="Combined Shape" fill-rule="evenodd" clip-rule="evenodd" d="M3.38976 11.116C3.83226 6.24852 7.93476 2.41602 12.9223 2.41602C18.2023 2.41602 22.5073 6.70602 22.5073 11.986C22.5073 17.266 18.2098 21.5635 12.9298 21.5635C9.39726 21.5635 6.15726 19.6285 4.48476 16.516C4.28976 16.156 4.42476 15.6985 4.79226 15.5035C5.15226 15.3085 5.60976 15.4435 5.80476 15.811C7.22226 18.436 9.95226 20.071 12.9298 20.071C17.3848 20.071 21.0073 16.4485 21.0073 11.9935C21.0073 7.53852 17.3848 3.91602 12.9298 3.91602C8.79726 3.91602 5.39226 7.03602 4.91226 11.0335L5.41476 10.4785C5.69226 10.171 6.16476 10.1485 6.47226 10.426C6.77976 10.7035 6.80226 11.176 6.52476 11.4835L4.10976 14.131L1.69476 11.4835C1.41726 11.176 1.43976 10.7035 1.74726 10.426C2.04726 10.1485 2.52726 10.171 2.80476 10.4785L3.38976 11.116ZM11.9847 7.04346C11.9847 6.63221 12.3202 6.2955 12.731 6.29347C13.1418 6.2955 13.4772 6.63221 13.4772 7.04346V12.526L16.3497 15.3385C16.6497 15.6235 16.6572 16.1035 16.3647 16.396C16.2222 16.546 16.0197 16.621 15.8322 16.621C15.6447 16.621 15.4497 16.546 15.3072 16.4035L12.2097 13.3735C12.0672 13.2385 11.9847 13.0435 11.9847 12.841V7.04346ZM12.731 6.29347C12.7322 6.29346 12.7335 6.29346 12.7347 6.29346H12.7272C12.7285 6.29346 12.7297 6.29346 12.731 6.29347Z" fill="#1B1C1D"/>
</g>
</svg>
